<svg aria-roledescription="er" viewBox="0 0 414.0245361328125 554" style="max-width: 414.025px; background-color: white;" xmlns:xlink="http://www.w3.org/1999/xlink" xmlns="http://www.w3.org/2000/svg" width="100%" id="mermaid-0"><style>#mermaid-0{font-family:"trebuchet ms",verdana,arial,sans-serif;font-size:16px;fill:#000000;}#mermaid-0 .error-icon{fill:#552222;}#mermaid-0 .error-text{fill:#552222;stroke:#552222;}#mermaid-0 .edge-thickness-normal{stroke-width:2px;}#mermaid-0 .edge-thickness-thick{stroke-width:3.5px;}#mermaid-0 .edge-pattern-solid{stroke-dasharray:0;}#mermaid-0 .edge-pattern-dashed{stroke-dasharray:3;}#mermaid-0 .edge-pattern-dotted{stroke-dasharray:2;}#mermaid-0 .marker{fill:#000000;stroke:#000000;}#mermaid-0 .marker.cross{stroke:#000000;}#mermaid-0 svg{font-family:"trebuchet ms",verdana,arial,sans-serif;font-size:16px;}#mermaid-0 .entityBox{fill:#cde498;stroke:#13540c;}#mermaid-0 .attributeBoxOdd{fill:#ffffff;stroke:#13540c;}#mermaid-0 .attributeBoxEven{fill:#f2f2f2;stroke:#13540c;}#mermaid-0 .relationshipLabelBox{fill:hsl(78.1578947368, 58.4615384615%, 84.5098039216%);opacity:0.7;background-color:hsl(78.1578947368, 58.4615384615%, 84.5098039216%);}#mermaid-0 .relationshipLabelBox rect{opacity:0.5;}#mermaid-0 .relationshipLine{stroke:#000000;}#mermaid-0 .entityTitleText{text-anchor:middle;font-size:18px;fill:#000000;}#mermaid-0 :root{--mermaid-font-family:"trebuchet ms",verdana,arial,sans-serif;}</style><g/><defs><marker orient="auto" markerHeight="18" markerWidth="18" refY="9" refX="0" id="ONLY_ONE_START"><path d="M9,0 L9,18 M15,0 L15,18" fill="none" stroke="gray"/></marker></defs><defs><marker orient="auto" markerHeight="18" markerWidth="18" refY="9" refX="18" id="ONLY_ONE_END"><path d="M3,0 L3,18 M9,0 L9,18" fill="none" stroke="gray"/></marker></defs><defs><marker orient="auto" markerHeight="18" markerWidth="30" refY="9" refX="0" id="ZERO_OR_ONE_START"><circle r="6" cy="9" cx="21" fill="white" stroke="gray"/><path d="M9,0 L9,18" fill="none" stroke="gray"/></marker></defs><defs><marker orient="auto" markerHeight="18" markerWidth="30" refY="9" refX="30" id="ZERO_OR_ONE_END"><circle r="6" cy="9" cx="9" fill="white" stroke="gray"/><path d="M21,0 L21,18" fill="none" stroke="gray"/></marker></defs><defs><marker orient="auto" markerHeight="36" markerWidth="45" refY="18" refX="18" id="ONE_OR_MORE_START"><path d="M0,18 Q 18,0 36,18 Q 18,36 0,18 M42,9 L42,27" fill="none" stroke="gray"/></marker></defs><defs><marker orient="auto" markerHeight="36" markerWidth="45" refY="18" refX="27" id="ONE_OR_MORE_END"><path d="M3,9 L3,27 M9,18 Q27,0 45,18 Q27,36 9,18" fill="none" stroke="gray"/></marker></defs><defs><marker orient="auto" markerHeight="36" markerWidth="57" refY="18" refX="18" id="ZERO_OR_MORE_START"><circle r="6" cy="18" cx="48" fill="white" stroke="gray"/><path d="M0,18 Q18,0 36,18 Q18,36 0,18" fill="none" stroke="gray"/></marker></defs><defs><marker orient="auto" markerHeight="36" markerWidth="57" refY="18" refX="39" id="ZERO_OR_MORE_END"><circle r="6" cy="18" cx="9" fill="white" stroke="gray"/><path d="M21,18 Q39,0 57,18 Q39,36 21,18" fill="none" stroke="gray"/></marker></defs><path style="stroke: gray; fill: none;" marker-start="url(#ZERO_OR_MORE_START)" marker-end="url(#ONLY_ONE_END)" d="M91.65251159667969,322L91.65251159667969,330.3333333333333C91.65251159667969,338.6666666666667,91.65251159667969,355.3333333333333,91.65251159667969,372C91.65251159667969,388.6666666666667,91.65251159667969,405.3333333333333,91.65251159667969,413.6666666666667L91.65251159667969,422" class="er relationshipLine"/><path style="stroke: gray; fill: none;" marker-start="url(#ZERO_OR_MORE_START)" marker-end="url(#ONLY_ONE_END)" d="M266.2931357935855,110L276.68841104340135,118.33333333333333C287.08368629321717,126.66666666666667,307.8742367928488,143.33333333333334,318.26951204266464,160C328.66478729248047,176.66666666666666,328.66478729248047,193.33333333333334,328.66478729248047,201.66666666666666L328.66478729248047,210" class="er relationshipLine"/><path style="stroke: gray; fill: none;" marker-start="url(#ZERO_OR_MORE_START)" marker-end="url(#ONLY_ONE_END)" d="M154.02416309557464,110L143.6288878457588,118.33333333333333C133.233612595943,126.66666666666667,112.44306209631134,143.33333333333334,102.04778684649551,160C91.65251159667969,176.66666666666666,91.65251159667969,193.33333333333334,91.65251159667969,201.66666666666666L91.65251159667969,210" class="er relationshipLine"/><g transform="translate(22.793502807617188,422 )" id="entity-customers-e4864a2f-d478-4f35-8f91-0e3e6a486459"><rect height="112" width="137.718017578125" y="0" x="0" class="er entityBox"/><text style="dominant-baseline: middle; text-anchor: middle; font-size: 12px;" transform="translate(68.8590087890625,12)" y="0" x="0" id="text-entity-customers-e4864a2f-d478-4f35-8f91-0e3e6a486459" class="er entityLabel">customers</text><rect height="22" width="54.095550537109375" y="24" x="0" class="er attributeBoxOdd"/><text style="dominant-baseline: middle; font-size: 10.2px;" transform="translate(5,35)" y="0" x="0" id="text-entity-customers-e4864a2f-d478-4f35-8f91-0e3e6a486459-attr-1-type" class="er entityLabel">String</text><rect height="22" width="60.934783935546875" y="24" x="54.095550537109375" class="er attributeBoxOdd"/><text style="dominant-baseline: middle; font-size: 10.2px;" transform="translate(59.095550537109375,35)" y="0" x="0" id="text-entity-customers-e4864a2f-d478-4f35-8f91-0e3e6a486459-attr-1-name" class="er entityLabel">id</text><rect height="22" width="22.68768310546875" y="24" x="115.03033447265625" class="er attributeBoxOdd"/><text style="dominant-baseline: middle; font-size: 10.2px;" transform="translate(120.03033447265625,35)" y="0" x="0" id="text-entity-customers-e4864a2f-d478-4f35-8f91-0e3e6a486459-attr-1-key" class="er entityLabel">PK</text><rect height="22" width="54.095550537109375" y="46" x="0" class="er attributeBoxEven"/><text style="dominant-baseline: middle; font-size: 10.2px;" transform="translate(5,57)" y="0" x="0" id="text-entity-customers-e4864a2f-d478-4f35-8f91-0e3e6a486459-attr-2-type" class="er entityLabel">String</text><rect height="22" width="60.934783935546875" y="46" x="54.095550537109375" class="er attributeBoxEven"/><text style="dominant-baseline: middle; font-size: 10.2px;" transform="translate(59.095550537109375,57)" y="0" x="0" id="text-entity-customers-e4864a2f-d478-4f35-8f91-0e3e6a486459-attr-2-name" class="er entityLabel">name</text><rect height="22" width="22.68768310546875" y="46" x="115.03033447265625" class="er attributeBoxEven"/><text style="dominant-baseline: middle; font-size: 10.2px;" transform="translate(120.03033447265625,57)" y="0" x="0" id="text-entity-customers-e4864a2f-d478-4f35-8f91-0e3e6a486459-attr-2-key" class="er entityLabel"/><rect height="22" width="54.095550537109375" y="68" x="0" class="er attributeBoxOdd"/><text style="dominant-baseline: middle; font-size: 10.2px;" transform="translate(5,79)" y="0" x="0" id="text-entity-customers-e4864a2f-d478-4f35-8f91-0e3e6a486459-attr-3-type" class="er entityLabel">String</text><rect height="22" width="60.934783935546875" y="68" x="54.095550537109375" class="er attributeBoxOdd"/><text style="dominant-baseline: middle; font-size: 10.2px;" transform="translate(59.095550537109375,79)" y="0" x="0" id="text-entity-customers-e4864a2f-d478-4f35-8f91-0e3e6a486459-attr-3-name" class="er entityLabel">cpf</text><rect height="22" width="22.68768310546875" y="68" x="115.03033447265625" class="er attributeBoxOdd"/><text style="dominant-baseline: middle; font-size: 10.2px;" transform="translate(120.03033447265625,79)" y="0" x="0" id="text-entity-customers-e4864a2f-d478-4f35-8f91-0e3e6a486459-attr-3-key" class="er entityLabel"/><rect height="22" width="54.095550537109375" y="90" x="0" class="er attributeBoxEven"/><text style="dominant-baseline: middle; font-size: 10.2px;" transform="translate(5,101)" y="0" x="0" id="text-entity-customers-e4864a2f-d478-4f35-8f91-0e3e6a486459-attr-4-type" class="er entityLabel">DateTime</text><rect height="22" width="60.934783935546875" y="90" x="54.095550537109375" class="er attributeBoxEven"/><text style="dominant-baseline: middle; font-size: 10.2px;" transform="translate(59.095550537109375,101)" y="0" x="0" id="text-entity-customers-e4864a2f-d478-4f35-8f91-0e3e6a486459-attr-4-name" class="er entityLabel">created_at</text><rect height="22" width="22.68768310546875" y="90" x="115.03033447265625" class="er attributeBoxEven"/><text style="dominant-baseline: middle; font-size: 10.2px;" transform="translate(120.03033447265625,101)" y="0" x="0" id="text-entity-customers-e4864a2f-d478-4f35-8f91-0e3e6a486459-attr-4-key" class="er entityLabel"/></g><g transform="translate(20,210 )" id="entity-orders-fec64e09-2d64-4fdc-a0b6-f62769c7613f"><rect height="112" width="143.30502319335938" y="0" x="0" class="er entityBox"/><text style="dominant-baseline: middle; text-anchor: middle; font-size: 12px;" transform="translate(71.65251159667969,12)" y="0" x="0" id="text-entity-orders-fec64e09-2d64-4fdc-a0b6-f62769c7613f" class="er entityLabel">orders</text><rect height="22" width="54.095550537109375" y="24" x="0" class="er attributeBoxOdd"/><text style="dominant-baseline: middle; font-size: 10.2px;" transform="translate(5,35)" y="0" x="0" id="text-entity-orders-fec64e09-2d64-4fdc-a0b6-f62769c7613f-attr-1-type" class="er entityLabel">String</text><rect height="22" width="66.52178955078125" y="24" x="54.095550537109375" class="er attributeBoxOdd"/><text style="dominant-baseline: middle; font-size: 10.2px;" transform="translate(59.095550537109375,35)" y="0" x="0" id="text-entity-orders-fec64e09-2d64-4fdc-a0b6-f62769c7613f-attr-1-name" class="er entityLabel">id</text><rect height="22" width="22.68768310546875" y="24" x="120.61734008789062" class="er attributeBoxOdd"/><text style="dominant-baseline: middle; font-size: 10.2px;" transform="translate(125.61734008789062,35)" y="0" x="0" id="text-entity-orders-fec64e09-2d64-4fdc-a0b6-f62769c7613f-attr-1-key" class="er entityLabel">PK</text><rect height="22" width="54.095550537109375" y="46" x="0" class="er attributeBoxEven"/><text style="dominant-baseline: middle; font-size: 10.2px;" transform="translate(5,57)" y="0" x="0" id="text-entity-orders-fec64e09-2d64-4fdc-a0b6-f62769c7613f-attr-2-type" class="er entityLabel">DateTime</text><rect height="22" width="66.52178955078125" y="46" x="54.095550537109375" class="er attributeBoxEven"/><text style="dominant-baseline: middle; font-size: 10.2px;" transform="translate(59.095550537109375,57)" y="0" x="0" id="text-entity-orders-fec64e09-2d64-4fdc-a0b6-f62769c7613f-attr-2-name" class="er entityLabel">created_at</text><rect height="22" width="22.68768310546875" y="46" x="120.61734008789062" class="er attributeBoxEven"/><text style="dominant-baseline: middle; font-size: 10.2px;" transform="translate(125.61734008789062,57)" y="0" x="0" id="text-entity-orders-fec64e09-2d64-4fdc-a0b6-f62769c7613f-attr-2-key" class="er entityLabel"/><rect height="22" width="54.095550537109375" y="68" x="0" class="er attributeBoxOdd"/><text style="dominant-baseline: middle; font-size: 10.2px;" transform="translate(5,79)" y="0" x="0" id="text-entity-orders-fec64e09-2d64-4fdc-a0b6-f62769c7613f-attr-3-type" class="er entityLabel">Decimal</text><rect height="22" width="66.52178955078125" y="68" x="54.095550537109375" class="er attributeBoxOdd"/><text style="dominant-baseline: middle; font-size: 10.2px;" transform="translate(59.095550537109375,79)" y="0" x="0" id="text-entity-orders-fec64e09-2d64-4fdc-a0b6-f62769c7613f-attr-3-name" class="er entityLabel">value</text><rect height="22" width="22.68768310546875" y="68" x="120.61734008789062" class="er attributeBoxOdd"/><text style="dominant-baseline: middle; font-size: 10.2px;" transform="translate(125.61734008789062,79)" y="0" x="0" id="text-entity-orders-fec64e09-2d64-4fdc-a0b6-f62769c7613f-attr-3-key" class="er entityLabel"/><rect height="22" width="54.095550537109375" y="90" x="0" class="er attributeBoxEven"/><text style="dominant-baseline: middle; font-size: 10.2px;" transform="translate(5,101)" y="0" x="0" id="text-entity-orders-fec64e09-2d64-4fdc-a0b6-f62769c7613f-attr-4-type" class="er entityLabel">String</text><rect height="22" width="66.52178955078125" y="90" x="54.095550537109375" class="er attributeBoxEven"/><text style="dominant-baseline: middle; font-size: 10.2px;" transform="translate(59.095550537109375,101)" y="0" x="0" id="text-entity-orders-fec64e09-2d64-4fdc-a0b6-f62769c7613f-attr-4-name" class="er entityLabel">customer_id</text><rect height="22" width="22.68768310546875" y="90" x="120.61734008789062" class="er attributeBoxEven"/><text style="dominant-baseline: middle; font-size: 10.2px;" transform="translate(125.61734008789062,101)" y="0" x="0" id="text-entity-orders-fec64e09-2d64-4fdc-a0b6-f62769c7613f-attr-4-key" class="er entityLabel"/></g><g transform="translate(263.3050231933594,210 )" id="entity-products-d95cab45-f9dc-4e49-80ed-a52fa595689d"><rect height="112" width="130.7195281982422" y="0" x="0" class="er entityBox"/><text style="dominant-baseline: middle; text-anchor: middle; font-size: 12px;" transform="translate(65.3597640991211,12)" y="0" x="0" id="text-entity-products-d95cab45-f9dc-4e49-80ed-a52fa595689d" class="er entityLabel">products</text><rect height="22" width="46.625" y="24" x="0" class="er attributeBoxOdd"/><text style="dominant-baseline: middle; font-size: 10.2px;" transform="translate(5,35)" y="0" x="0" id="text-entity-products-d95cab45-f9dc-4e49-80ed-a52fa595689d-attr-1-type" class="er entityLabel">String</text><rect height="22" width="61.40684509277344" y="24" x="46.625" class="er attributeBoxOdd"/><text style="dominant-baseline: middle; font-size: 10.2px;" transform="translate(51.625,35)" y="0" x="0" id="text-entity-products-d95cab45-f9dc-4e49-80ed-a52fa595689d-attr-1-name" class="er entityLabel">id</text><rect height="22" width="22.68768310546875" y="24" x="108.03184509277344" class="er attributeBoxOdd"/><text style="dominant-baseline: middle; font-size: 10.2px;" transform="translate(113.03184509277344,35)" y="0" x="0" id="text-entity-products-d95cab45-f9dc-4e49-80ed-a52fa595689d-attr-1-key" class="er entityLabel">PK</text><rect height="22" width="46.625" y="46" x="0" class="er attributeBoxEven"/><text style="dominant-baseline: middle; font-size: 10.2px;" transform="translate(5,57)" y="0" x="0" id="text-entity-products-d95cab45-f9dc-4e49-80ed-a52fa595689d-attr-2-type" class="er entityLabel">String</text><rect height="22" width="61.40684509277344" y="46" x="46.625" class="er attributeBoxEven"/><text style="dominant-baseline: middle; font-size: 10.2px;" transform="translate(51.625,57)" y="0" x="0" id="text-entity-products-d95cab45-f9dc-4e49-80ed-a52fa595689d-attr-2-name" class="er entityLabel">name</text><rect height="22" width="22.68768310546875" y="46" x="108.03184509277344" class="er attributeBoxEven"/><text style="dominant-baseline: middle; font-size: 10.2px;" transform="translate(113.03184509277344,57)" y="0" x="0" id="text-entity-products-d95cab45-f9dc-4e49-80ed-a52fa595689d-attr-2-key" class="er entityLabel"/><rect height="22" width="46.625" y="68" x="0" class="er attributeBoxOdd"/><text style="dominant-baseline: middle; font-size: 10.2px;" transform="translate(5,79)" y="0" x="0" id="text-entity-products-d95cab45-f9dc-4e49-80ed-a52fa595689d-attr-3-type" class="er entityLabel">String</text><rect height="22" width="61.40684509277344" y="68" x="46.625" class="er attributeBoxOdd"/><text style="dominant-baseline: middle; font-size: 10.2px;" transform="translate(51.625,79)" y="0" x="0" id="text-entity-products-d95cab45-f9dc-4e49-80ed-a52fa595689d-attr-3-name" class="er entityLabel">description</text><rect height="22" width="22.68768310546875" y="68" x="108.03184509277344" class="er attributeBoxOdd"/><text style="dominant-baseline: middle; font-size: 10.2px;" transform="translate(113.03184509277344,79)" y="0" x="0" id="text-entity-products-d95cab45-f9dc-4e49-80ed-a52fa595689d-attr-3-key" class="er entityLabel"/><rect height="22" width="46.625" y="90" x="0" class="er attributeBoxEven"/><text style="dominant-baseline: middle; font-size: 10.2px;" transform="translate(5,101)" y="0" x="0" id="text-entity-products-d95cab45-f9dc-4e49-80ed-a52fa595689d-attr-4-type" class="er entityLabel">Decimal</text><rect height="22" width="61.40684509277344" y="90" x="46.625" class="er attributeBoxEven"/><text style="dominant-baseline: middle; font-size: 10.2px;" transform="translate(51.625,101)" y="0" x="0" id="text-entity-products-d95cab45-f9dc-4e49-80ed-a52fa595689d-attr-4-name" class="er entityLabel">price</text><rect height="22" width="22.68768310546875" y="90" x="108.03184509277344" class="er attributeBoxEven"/><text style="dominant-baseline: middle; font-size: 10.2px;" transform="translate(113.03184509277344,101)" y="0" x="0" id="text-entity-products-d95cab45-f9dc-4e49-80ed-a52fa595689d-attr-4-key" class="er entityLabel"/></g><g transform="translate(114.51223373413086,20 )" id="entity-ProductsOnOrder-52fe14d4-d794-432f-8179-df15c6c05d41"><rect height="90" width="191.29283142089844" y="0" x="0" class="er entityBox"/><text style="dominant-baseline: middle; text-anchor: middle; font-size: 12px;" transform="translate(95.64641571044922,12)" y="0" x="0" id="text-entity-ProductsOnOrder-52fe14d4-d794-432f-8179-df15c6c05d41" class="er entityLabel">ProductsOnOrder</text><rect height="22" width="37.39605712890625" y="24" x="0" class="er attributeBoxOdd"/><text style="dominant-baseline: middle; font-size: 10.2px;" transform="translate(5,35)" y="0" x="0" id="text-entity-ProductsOnOrder-52fe14d4-d794-432f-8179-df15c6c05d41-attr-1-type" class="er entityLabel">String</text><rect height="22" width="131.20909118652344" y="24" x="37.39605712890625" class="er attributeBoxOdd"/><text style="dominant-baseline: middle; font-size: 10.2px;" transform="translate(42.39605712890625,35)" y="0" x="0" id="text-entity-ProductsOnOrder-52fe14d4-d794-432f-8179-df15c6c05d41-attr-1-name" class="er entityLabel">product_id</text><rect height="22" width="22.68768310546875" y="24" x="168.6051483154297" class="er attributeBoxOdd"/><text style="dominant-baseline: middle; font-size: 10.2px;" transform="translate(173.6051483154297,35)" y="0" x="0" id="text-entity-ProductsOnOrder-52fe14d4-d794-432f-8179-df15c6c05d41-attr-1-key" class="er entityLabel">PK</text><rect height="22" width="37.39605712890625" y="46" x="0" class="er attributeBoxEven"/><text style="dominant-baseline: middle; font-size: 10.2px;" transform="translate(5,57)" y="0" x="0" id="text-entity-ProductsOnOrder-52fe14d4-d794-432f-8179-df15c6c05d41-attr-2-type" class="er entityLabel">Int</text><rect height="22" width="131.20909118652344" y="46" x="37.39605712890625" class="er attributeBoxEven"/><text style="dominant-baseline: middle; font-size: 10.2px;" transform="translate(42.39605712890625,57)" y="0" x="0" id="text-entity-ProductsOnOrder-52fe14d4-d794-432f-8179-df15c6c05d41-attr-2-name" class="er entityLabel">amount_product_to_order</text><rect height="22" width="22.68768310546875" y="46" x="168.6051483154297" class="er attributeBoxEven"/><text style="dominant-baseline: middle; font-size: 10.2px;" transform="translate(173.6051483154297,57)" y="0" x="0" id="text-entity-ProductsOnOrder-52fe14d4-d794-432f-8179-df15c6c05d41-attr-2-key" class="er entityLabel"/><rect height="22" width="37.39605712890625" y="68" x="0" class="er attributeBoxOdd"/><text style="dominant-baseline: middle; font-size: 10.2px;" transform="translate(5,79)" y="0" x="0" id="text-entity-ProductsOnOrder-52fe14d4-d794-432f-8179-df15c6c05d41-attr-3-type" class="er entityLabel">String</text><rect height="22" width="131.20909118652344" y="68" x="37.39605712890625" class="er attributeBoxOdd"/><text style="dominant-baseline: middle; font-size: 10.2px;" transform="translate(42.39605712890625,79)" y="0" x="0" id="text-entity-ProductsOnOrder-52fe14d4-d794-432f-8179-df15c6c05d41-attr-3-name" class="er entityLabel">order_id</text><rect height="22" width="22.68768310546875" y="68" x="168.6051483154297" class="er attributeBoxOdd"/><text style="dominant-baseline: middle; font-size: 10.2px;" transform="translate(173.6051483154297,79)" y="0" x="0" id="text-entity-ProductsOnOrder-52fe14d4-d794-432f-8179-df15c6c05d41-attr-3-key" class="er entityLabel">PK</text></g><rect height="14" width="51.05859375" y="365" x="66.12321472167969" class="er relationshipLabelBox"/><text style="text-anchor: middle; dominant-baseline: middle; font-size: 12px;" y="372" x="91.65251159667969" id="rel1" class="er relationshipLabel">customer</text><rect height="14" width="41.97265625" y="144.66734313964844" x="291.2845153808594" class="er relationshipLabelBox"/><text style="text-anchor: middle; dominant-baseline: middle; font-size: 12px;" y="151.66734313964844" x="312.2708435058594" id="rel2" class="er relationshipLabel">product</text><rect height="14" width="30.333984375" y="144.6673126220703" x="92.87947082519531" class="er relationshipLabelBox"/><text style="text-anchor: middle; dominant-baseline: middle; font-size: 12px;" y="151.6673126220703" x="108.04646301269531" id="rel3" class="er relationshipLabel">order</text></svg>